<svg width="40" height="40" viewBox="0 0 40 40" fill="none" xmlns="http://www.w3.org/2000/svg">
<path d="M30.4462 32.3213L36.3932 14.4785C38.7644 7.36309 39.9519 3.80441 38.0728 1.92722C36.1956 0.0481382 32.6388 1.23563 25.5215 3.60681L7.7927 9.51577C3.83692 10.8344 1.85904 11.4937 1.25864 12.9433C1.11678 13.2866 1.03255 13.6438 1.00595 14.0149C0.893846 15.5805 2.36824 17.0549 5.31701 20.0018L5.85471 20.5395C6.33731 21.0221 6.58051 21.2653 6.7629 21.5332C7.1239 22.0652 7.3272 22.6865 7.3519 23.3287C7.3671 23.6536 7.3158 23.9937 7.2151 24.6682C6.8427 27.1457 6.6565 28.3845 6.875 29.3383C7.312 31.2383 8.78259 32.7298 10.675 33.1915C11.625 33.4252 12.8676 33.2561 15.3489 32.9198L15.4857 32.9008C16.1849 32.8058 16.5345 32.7583 16.8708 32.7792C17.4788 32.8153 18.0678 33.0148 18.577 33.3549C18.8563 33.5411 19.1071 33.7919 19.6049 34.2897L20.0837 34.7685C22.9527 37.6375 24.3872 39.072 25.9091 38.9979C26.3271 38.977 26.7413 38.8801 27.1251 38.7091C28.5196 38.0954 29.1637 36.1707 30.4462 32.3213Z" stroke="black" stroke-width="1.5"/>
<path d="M8.6001 31.3997L37.0999 2.89989" stroke="black" stroke-width="1.5" stroke-linecap="round"/>
</svg>
