<svg width="76" height="76" viewBox="0 0 76 76" fill="none" xmlns="http://www.w3.org/2000/svg">
<g clip-path="url(#clip0_1_102)">
<path d="M61.3272 24.0445C60.2895 18.618 57.3923 13.7231 53.1346 10.2024C48.8768 6.68174 43.5248 4.75562 38 4.75562C32.4752 4.75562 27.1232 6.68174 22.8654 10.2024C18.6077 13.7231 15.7105 18.618 14.6727 24.0445C10.2894 24.8247 6.35741 27.219 3.65231 30.7553C0.947206 34.2916 -0.334687 38.7131 0.0594248 43.1479C0.453537 47.5827 2.49505 51.7089 5.78135 54.7127C9.06766 57.7165 13.3602 59.38 17.8125 59.375H19V54.625H17.8125C14.4223 54.6338 11.1617 53.3232 8.72063 50.9707C6.27956 48.6181 4.84956 45.4081 4.73323 42.0199C4.61689 38.6317 5.82335 35.3312 8.09731 32.8167C10.3713 30.3023 13.5343 28.7712 16.9171 28.5475L18.9026 28.4121L19.1164 26.4337C19.6232 21.7794 21.831 17.4762 25.3161 14.35C28.8013 11.2238 33.3182 9.49473 38 9.49473C42.6818 9.49473 47.1987 11.2238 50.6838 14.35C54.169 17.4762 56.3768 21.7794 56.8836 26.4337L57.0974 28.4121L59.0829 28.5498C62.4588 28.7824 65.6125 30.3171 67.8789 32.83C70.1452 35.343 71.3471 38.6379 71.2309 42.0199C71.1148 45.4019 69.6898 48.6066 67.2564 50.9582C64.823 53.3098 61.5715 54.6245 58.1875 54.625H57V59.375H58.1875C62.6398 59.38 66.9323 57.7165 70.2186 54.7127C73.5049 51.7089 75.5464 47.5827 75.9406 43.1479C76.3347 38.7131 75.0528 34.2916 72.3477 30.7553C69.6426 27.219 65.7106 24.8247 61.3272 24.0445Z" fill="#A7182D"/>
<path d="M54.625 52.25V47.5H49.6351C49.327 46.0139 48.7369 44.6006 47.8966 43.3366L51.4354 39.7979L48.0771 36.4396L44.5384 39.9784C43.2744 39.1381 41.8611 38.548 40.375 38.2399V33.25H35.625V38.2399C34.1389 38.548 32.7256 39.1381 31.4616 39.9784L27.9229 36.4396L24.5646 39.7979L28.1034 43.3366C27.2631 44.6006 26.673 46.0139 26.3649 47.5H21.375V52.25H26.3649C26.673 53.7361 27.2631 55.1494 28.1034 56.4134L24.5646 59.9521L27.9229 63.3104L31.4616 59.7716C32.7256 60.6119 34.1389 61.202 35.625 61.5101V66.5H40.375V61.5101C41.8611 61.202 43.2744 60.6119 44.5384 59.7716L48.0771 63.3104L51.4354 59.9521L47.8966 56.4134C48.7369 55.1494 49.327 53.7361 49.6351 52.25H54.625ZM38 57C36.5908 57 35.2133 56.5821 34.0416 55.7992C32.8699 55.0163 31.9566 53.9035 31.4174 52.6016C30.8781 51.2997 30.737 49.8671 31.0119 48.485C31.2868 47.1029 31.9654 45.8333 32.9619 44.8369C33.9583 43.8404 35.2279 43.1618 36.61 42.8869C37.9921 42.612 39.4247 42.7531 40.7266 43.2924C42.0285 43.8316 43.1413 44.7449 43.9242 45.9166C44.7071 47.0883 45.125 48.4658 45.125 49.875C45.1231 51.7641 44.3718 53.5753 43.0361 54.9111C41.7003 56.2468 39.8891 56.9981 38 57Z" fill="#A7182D"/>
</g>
<defs>
<clipPath id="clip0_1_102">
<rect width="76" height="76" fill="white"/>
</clipPath>
</defs>
</svg>
