<svg width="506" height="912" viewBox="0 0 506 912" fill="none" xmlns="http://www.w3.org/2000/svg">
<path d="M476.373 615.232C475.215 618.331 474.02 621.42 472.791 624.499L470.471 623.574C469.253 626.627 468 629.67 466.712 632.703L469.012 633.679C467.719 636.722 466.392 639.754 465.03 642.775L462.752 641.749C461.4 644.748 460.014 647.736 458.593 650.711L460.847 651.787C459.423 654.768 457.965 657.738 456.472 660.695L454.242 659.569C452.759 662.508 451.241 665.435 449.689 668.349L451.893 669.522C450.342 672.435 448.756 675.334 447.136 678.221L444.958 677C443.347 679.87 441.702 682.726 440.023 685.569L442.174 686.839C440.496 689.681 438.785 692.51 437.04 695.324L434.916 694.007C433.183 696.801 431.415 699.582 429.615 702.347L431.71 703.71C429.907 706.478 428.071 709.232 426.201 711.971L424.138 710.564C422.287 713.276 420.402 715.973 418.485 718.655L420.517 720.108C418.592 722.799 416.635 725.475 414.644 728.135L412.644 726.638C410.68 729.263 408.683 731.873 406.654 734.465L408.621 736.006C406.58 738.613 404.506 741.203 402.4 743.777L400.468 742.196C398.393 744.732 396.285 747.251 394.146 749.754L396.046 751.378C393.899 753.891 391.718 756.385 389.507 758.863L387.643 757.2C386.544 758.433 385.436 759.66 384.32 760.884C383.205 762.107 382.084 763.323 380.958 764.532L382.785 766.234C380.522 768.664 378.239 771.065 375.934 773.434L374.142 771.692C371.846 774.052 369.531 776.383 367.197 778.683L368.949 780.461C366.58 782.795 364.192 785.098 361.784 787.37L360.069 785.553C357.673 787.813 355.258 790.041 352.825 792.239L354.501 794.091C352.035 796.318 349.551 798.514 347.048 800.678L345.413 798.789C342.919 800.944 340.407 803.069 337.877 805.162L339.469 807.087C336.914 809.2 334.34 811.282 331.749 813.332L330.199 811.372C327.611 813.419 325.005 815.435 322.382 817.418L323.889 819.411C321.248 821.408 318.588 823.371 315.913 825.304L314.45 823.28C311.774 825.213 309.08 827.113 306.37 828.981L307.787 831.038C305.062 832.916 302.321 834.762 299.564 836.575L298.191 834.488C295.433 836.302 292.658 838.083 289.868 839.83L291.195 841.947C288.387 843.705 285.565 845.43 282.727 847.122L281.448 844.977C278.616 846.666 275.768 848.322 272.907 849.944L274.138 852.116C271.256 853.751 268.358 855.351 265.447 856.918L264.263 854.719C261.362 856.28 258.447 857.808 255.519 859.302L256.654 861.527C253.701 863.033 250.735 864.507 247.756 865.945L246.668 863.696C243.703 865.127 240.725 866.525 237.735 867.889L238.773 870.16C235.756 871.536 232.727 872.879 229.686 874.186L228.698 871.892C225.674 873.191 222.639 874.457 219.592 875.688L220.527 878.004C217.453 879.247 214.368 880.453 211.272 881.626L210.388 879.292C207.309 880.458 204.219 881.59 201.119 882.688L201.953 885.045C198.829 886.151 195.695 887.219 192.552 888.255L191.77 885.883C188.642 886.915 185.504 887.911 182.358 888.873L183.089 891.263C179.922 892.231 176.745 893.163 173.56 894.061L172.883 891.656C169.712 892.55 166.534 893.409 163.347 894.233L163.973 896.652C160.767 897.48 157.555 898.276 154.335 899.034L153.761 896.602C150.555 897.357 147.341 898.077 144.121 898.762L144.642 901.204C141.403 901.893 138.159 902.546 134.909 903.164L134.443 900.71C131.206 901.325 127.964 901.905 124.717 902.449L125.13 904.914C121.865 905.461 118.595 905.971 115.321 906.447L114.962 903.976C111.703 904.45 108.439 904.888 105.171 905.29L105.477 907.77C102.191 908.175 98.9014 908.545 95.6084 908.879L95.3562 906.393C92.0804 906.725 88.8013 907.022 85.5197 907.282L85.7174 909.771C82.4172 910.034 79.1145 910.262 75.8097 910.452L75.6657 907.958C72.3791 908.147 69.0904 908.301 65.8005 908.419L65.89 910.916C62.582 911.035 59.2724 911.117 55.9624 911.165L55.9268 908.667C52.6351 908.714 49.3426 908.725 46.0501 908.701L46.0312 911.2C42.7217 911.175 39.4122 911.114 36.1032 911.018L36.1754 908.521C32.8846 908.425 29.5943 908.293 26.3052 908.126L26.1783 910.62C22.8736 910.452 19.5701 910.249 16.2684 910.009L16.4501 907.517C13.1665 907.278 9.88379 907.003 6.60444 906.693L6.36996 909.179C3.0763 908.868 -0.214913 908.521 -3.50303 908.138L-3.21371 905.657C-6.48338 905.275 -9.75051 904.858 -13.0134 904.406L-13.3569 906.881C-16.6339 906.427 -19.9069 905.934 -23.1758 905.408L-22.7786 902.943C-26.0278 902.42 -29.2729 901.861 -32.5129 901.267L-32.9644 903.725C-36.2184 903.128 -39.4674 902.494 -42.711 901.826L-42.2072 899.379C-45.4291 898.715 -48.6455 898.015 -51.8559 897.28L-52.4135 899.714C-55.6393 898.976 -58.8595 898.203 -62.0724 897.393L-61.4611 894.969C-64.6496 894.165 -67.8322 893.326 -71.0067 892.451L-71.67 894.858C-74.8614 893.979 -78.0458 893.065 -81.2219 892.114L-80.5055 889.721C-83.6537 888.779 -86.7946 887.801 -89.9265 886.788L-90.6955 889.165C-93.845 888.146 -96.9856 887.092 -100.117 886.003L-99.2971 883.644C-102.401 882.564 -105.496 881.45 -108.581 880.3L-109.454 882.641C-112.554 881.486 -115.644 880.295 -118.724 879.069L-117.8 876.748C-120.855 875.533 -123.9 874.282 -126.934 872.997L-127.908 875.298C-130.953 874.008 -133.986 872.682 -137.008 871.323L-135.983 869.045C-138.983 867.696 -141.971 866.312 -144.948 864.893L-146.023 867.148C-149.006 865.726 -151.976 864.27 -154.934 862.78L-153.81 860.55C-156.75 859.068 -159.677 857.552 -162.592 856.002L-163.766 858.206C-166.679 856.657 -169.58 855.073 -172.467 853.455L-171.246 851.277C-174.117 849.668 -176.975 848.025 -179.819 846.348L-181.088 848.499C-183.931 846.823 -186.761 845.113 -189.576 843.368L-188.259 841.245C-191.054 839.513 -193.836 837.748 -196.602 835.949L-197.964 838.043C-200.733 836.242 -203.488 834.407 -206.228 832.539L-204.819 830.475C-207.532 828.625 -210.231 826.741 -212.913 824.825L-214.366 826.857C-217.058 824.934 -219.734 822.977 -222.395 820.987L-220.899 818.987C-223.524 817.024 -226.134 815.028 -228.727 812.999L-230.267 814.966C-232.875 812.926 -235.465 810.852 -238.04 808.747L-236.457 806.814C-238.994 804.74 -241.515 802.632 -244.018 800.494L-245.641 802.393C-248.154 800.245 -250.65 798.066 -253.128 795.854L-251.464 793.992C-252.696 792.892 -253.924 791.784 -255.147 790.669C-256.371 789.553 -257.587 788.432 -258.795 787.307L-260.498 789.133C-262.928 786.869 -265.328 784.585 -267.698 782.28L-265.955 780.49C-268.315 778.194 -270.645 775.878 -272.944 773.543L-274.724 775.295C-277.057 772.926 -279.36 770.537 -281.631 768.129L-279.814 766.415C-282.072 764.019 -284.3 761.604 -286.497 759.17L-288.351 760.843C-290.577 758.377 -292.772 755.892 -294.935 753.388L-293.045 751.755C-295.2 749.261 -297.323 746.748 -299.415 744.216L-301.341 745.808C-303.454 743.252 -305.534 740.677 -307.583 738.085L-305.623 736.536C-307.669 733.948 -309.682 731.34 -311.664 728.717L-313.658 730.222C-315.653 727.58 -317.616 724.92 -319.547 722.243L-317.522 720.782C-319.453 718.104 -321.352 715.409 -323.218 712.698L-325.276 714.114C-327.153 711.388 -328.996 708.645 -330.807 705.887L-328.718 704.516C-330.53 701.756 -332.31 698.981 -334.056 696.189L-336.174 697.513C-337.93 694.705 -339.653 691.881 -341.342 689.043L-339.195 687.765C-340.882 684.932 -342.535 682.083 -344.155 679.22L-346.33 680.449C-347.962 677.565 -349.56 674.667 -351.124 671.754L-348.923 670.572C-350.482 667.67 -352.006 664.753 -353.498 661.823L-355.725 662.956C-357.228 660.002 -358.699 657.035 -360.135 654.054L-357.883 652.97C-359.311 650.004 -360.706 647.024 -362.067 644.032L-364.341 645.066C-365.714 642.048 -367.052 639.017 -368.356 635.975L-366.06 634.991C-367.356 631.966 -368.619 628.929 -369.847 625.88L-372.165 626.814C-373.404 623.738 -374.606 620.651 -375.776 617.554L-373.44 616.672C-374.603 613.592 -375.731 610.5 -376.825 607.399L-379.183 608.23C-380.285 605.105 -381.351 601.97 -382.384 598.825L-380.009 598.047C-381.037 594.918 -382.03 591.78 -382.988 588.632L-385.378 589.359C-386.342 586.19 -387.272 583.013 -388.166 579.828L-385.759 579.153C-386.649 575.982 -387.504 572.802 -388.324 569.615L-390.743 570.236C-391.568 567.029 -392.358 563.816 -393.112 560.594L-390.679 560.025C-391.43 556.817 -392.145 553.603 -392.826 550.382L-395.271 550.899C-395.955 547.66 -396.603 544.414 -397.216 541.163L-394.762 540.7C-395.372 537.464 -395.947 534.221 -396.487 530.973L-398.952 531.383C-399.495 528.117 -400.001 524.846 -400.473 521.571L-398 521.215C-398.47 517.956 -398.903 514.692 -399.301 511.424L-401.782 511.725C-402.182 508.439 -402.548 505.149 -402.877 501.856L-400.39 501.607C-400.717 498.331 -401.009 495.051 -401.265 491.769L-403.755 491.963C-404.013 488.663 -404.235 485.36 -404.421 482.055L-401.927 481.914C-402.112 478.627 -402.261 475.339 -402.375 472.048L-404.872 472.134C-404.987 468.826 -405.064 465.516 -405.106 462.206L-402.608 462.175C-402.65 458.883 -402.657 455.59 -402.628 452.297L-405.127 452.274C-405.098 448.965 -405.032 445.656 -404.931 442.347L-402.434 442.423C-402.333 439.133 -402.197 435.843 -402.025 432.554L-404.519 432.422C-404.346 429.118 -404.14 425.815 -403.896 422.514L-403.895 422.515L-401.402 422.698C-401.159 419.415 -400.879 416.134 -400.564 412.855L-403.052 412.615C-402.735 409.322 -402.383 406.032 -401.995 402.744L-399.516 403.037C-399.13 399.768 -398.708 396.502 -398.251 393.24L-400.726 392.892C-400.267 389.616 -399.772 386.344 -399.241 383.076L-396.775 383.476C-396.248 380.228 -395.685 376.983 -395.086 373.744L-397.544 373.29C-396.943 370.036 -396.306 366.788 -395.633 363.545L-393.186 364.053C-392.518 360.831 -391.814 357.615 -391.075 354.405L-393.509 353.845C-392.766 350.62 -391.99 347.401 -391.176 344.188L-388.753 344.804C-387.946 341.616 -387.102 338.435 -386.224 335.261L-388.632 334.594C-387.748 331.404 -386.83 328.22 -385.876 325.045L-383.482 325.765C-382.536 322.618 -381.556 319.478 -380.54 316.347L-382.916 315.575C-381.894 312.427 -380.836 309.287 -379.744 306.157L-377.386 306.98C-376.303 303.877 -375.185 300.783 -374.032 297.699L-376.373 296.823C-375.214 293.724 -374.02 290.635 -372.791 287.556L-370.471 288.483C-369.252 285.429 -368 282.386 -366.712 279.353L-369.012 278.376C-367.72 275.333 -366.392 272.3 -365.03 269.279L-362.752 270.307C-361.4 267.309 -360.013 264.321 -358.592 261.346L-360.847 260.267C-359.424 257.286 -357.965 254.318 -356.472 251.361L-354.242 252.488C-352.758 249.549 -351.241 246.622 -349.688 243.708L-351.893 242.533C-350.341 239.62 -348.756 236.72 -347.136 233.834L-344.957 235.057C-343.346 232.187 -341.702 229.33 -340.023 226.487L-342.174 225.215C-340.496 222.373 -338.785 219.545 -337.039 216.732L-334.916 218.05C-333.183 215.255 -331.416 212.474 -329.615 209.709L-331.709 208.346C-329.907 205.577 -328.07 202.823 -326.201 200.085L-324.138 201.493C-322.286 198.781 -320.402 196.083 -318.485 193.401L-320.517 191.947C-318.593 189.255 -316.635 186.58 -314.645 183.92L-312.645 185.418C-310.68 182.793 -308.684 180.183 -306.654 177.591L-308.621 176.049C-306.581 173.442 -304.507 170.852 -302.401 168.278L-300.468 169.861C-298.392 167.325 -296.286 164.805 -294.147 162.302L-296.046 160.677C-293.899 158.165 -291.719 155.67 -289.507 153.192L-287.644 154.856C-286.544 153.623 -285.436 152.396 -284.321 151.172C-283.205 149.949 -282.084 148.733 -280.958 147.524L-282.786 145.821C-280.522 143.391 -278.238 140.991 -275.934 138.621L-274.142 140.364C-271.847 138.004 -269.531 135.674 -267.196 133.374L-268.95 131.594C-267.205 129.876 -265.451 128.173 -263.685 126.488L-261.784 124.685L-260.069 126.503C-257.674 124.243 -255.259 122.015 -252.826 119.818L-254.501 117.963C-252.036 115.736 -249.551 113.541 -247.048 111.377L-245.414 113.268C-242.92 111.112 -240.407 108.987 -237.876 106.894L-239.469 104.969C-236.914 102.855 -234.34 100.774 -231.749 98.7238L-230.199 100.684C-227.611 98.6369 -225.005 96.6217 -222.382 94.6387L-223.889 92.6447C-221.247 90.6478 -218.589 88.6833 -215.913 86.7511L-214.45 88.7768C-211.773 86.8437 -209.08 84.9433 -206.37 83.0753L-207.788 81.0171C-205.063 79.1386 -202.321 77.2934 -199.563 75.4804L-198.191 77.5684C-195.432 75.7547 -192.657 73.9739 -189.868 72.2262L-191.194 70.1085C-188.387 68.3501 -185.565 66.6245 -182.728 64.9326L-181.447 67.0794C-178.615 65.3907 -175.768 63.735 -172.906 62.1129L-174.139 59.9384C-171.983 58.7165 -169.82 57.5129 -167.649 56.3287L-165.448 55.1364L-164.263 57.3374C-161.362 55.7761 -158.447 54.2482 -155.519 52.7542L-156.653 50.5288C-153.701 49.0222 -150.735 47.5478 -147.756 46.1093L-146.669 48.3604C-143.704 46.9288 -140.726 45.5311 -137.736 44.1674L-138.772 41.8946C-135.755 40.5186 -132.726 39.1764 -129.685 37.8694L-128.698 40.1652C-125.674 38.8653 -122.638 37.5999 -119.591 36.3685L-120.528 34.0503C-117.454 32.8079 -114.368 31.601 -111.272 30.4279L-110.387 32.7651C-107.308 31.5984 -104.218 30.4665 -101.119 29.3688L-101.953 27.0114C-98.8294 25.9053 -95.6949 24.8367 -92.5519 23.8005L-91.7706 26.1729C-88.6425 25.1416 -85.5047 24.1451 -82.3585 23.1834L-83.0888 20.7928C-79.9214 19.8246 -76.7452 18.8915 -73.5608 17.9936L-72.8831 20.3997C-69.7126 19.5057 -66.5338 18.6467 -63.3476 17.8228L-63.9728 15.4038C-60.7672 14.5749 -57.5545 13.7795 -54.3343 13.0212L-53.7611 15.455C-50.5546 14.6998 -47.3412 13.9789 -44.1214 13.2942L-44.6412 10.851C-41.4031 10.1624 -38.1588 9.50894 -34.9086 8.89126L-34.4422 11.3466C-31.2061 10.7316 -27.9644 10.1513 -24.7175 9.607L-25.1297 7.14159L-25.1298 7.14021C-21.8652 6.59298 -18.5951 6.08431 -15.3208 5.60828L-14.9614 8.08097C-11.7024 7.60714 -8.43883 7.16843 -5.17152 6.76559L-5.47597 4.28484C-2.19054 3.87977 1.0987 3.50968 4.39122 3.17605L4.64344 5.66335C7.91929 5.33141 11.1983 5.03451 14.4799 4.77372L14.2822 2.28322C17.5824 2.02096 20.8851 1.79315 24.1898 1.60252L24.3339 4.09827C27.6206 3.90869 30.9092 3.75487 34.1992 3.63659L34.1103 1.13968C37.4183 1.02076 40.7279 0.93798 44.0379 0.890809L44.0729 3.38882C47.3645 3.34191 50.6571 3.33071 53.9495 3.3552L53.9691 0.855369C57.2786 0.879999 60.5882 0.941376 63.8972 1.03782L63.8243 3.53527C67.1151 3.63119 70.4054 3.76315 73.6944 3.93054L73.822 1.4354C76.2543 1.55919 78.686 1.70099 81.1167 1.86368L83.7319 2.04659L83.5503 4.54007C86.8339 4.77877 90.1159 5.05282 93.3952 5.36301L93.631 2.87533C96.9247 3.18687 100.216 3.53348 103.504 3.9168L103.214 6.40006C106.484 6.78123 109.75 7.19768 113.013 7.65026L113.357 5.17417C116.634 5.62869 119.907 6.12054 123.175 6.64675L122.779 9.1135C126.028 9.63654 129.273 10.1947 132.513 10.7891L132.964 8.33016C136.218 8.92716 139.467 9.56117 142.711 10.2298L142.207 12.6773C145.429 13.3414 148.645 14.0412 151.856 14.7764L152.413 12.3402C155.639 13.079 158.859 13.8526 162.072 14.6628L161.461 17.0876C164.65 17.8916 167.832 18.73 171.006 19.6048L171.67 17.1969C174.862 18.0764 178.047 18.9898 181.223 19.9406L180.506 22.3357C183.654 23.2781 186.795 24.2557 189.927 25.2685L190.696 22.8904C193.845 23.9088 196.985 24.9628 200.117 26.0521L199.297 28.4125C202.401 29.4922 205.496 30.6064 208.581 31.7561L209.455 29.4139C212.555 30.5691 215.645 31.7606 218.725 32.9863L217.8 35.3087C220.855 36.5242 223.9 37.7736 226.934 39.0588L227.909 36.7575C230.953 38.0471 233.986 39.3723 237.008 40.7318L235.983 43.0111C238.983 44.3606 241.972 45.7449 244.948 47.1636L246.024 44.9076C249.006 46.3288 251.976 47.7845 254.934 49.2749L253.809 51.5063C256.75 52.9878 259.677 54.5047 262.592 56.055L263.765 53.8483C266.679 55.3979 269.579 56.9813 272.467 58.5992L271.245 60.7791C274.117 62.3881 276.975 64.031 279.819 65.708L281.088 63.5557C283.931 65.2321 286.76 66.9421 289.575 68.6863L288.259 70.8111C291.054 72.5429 293.835 74.3077 296.601 76.1067L297.964 74.0122C300.734 75.8135 303.489 77.6483 306.228 79.5167L304.82 81.5814C307.533 83.4317 310.231 85.315 312.913 87.2314L314.366 85.1978C317.058 87.1214 319.734 89.0785 322.395 91.0684L320.899 93.0688C323.524 95.0325 326.134 97.0291 328.728 99.0579L330.268 97.0893C332.875 99.1292 335.465 101.203 338.039 103.308L336.458 105.242C338.994 107.317 341.515 109.424 344.018 111.562L345.641 109.662C348.154 111.809 350.649 113.989 353.127 116.201L351.464 118.065C352.697 119.164 353.924 120.272 355.148 121.388C356.371 122.504 357.587 123.624 358.796 124.75L360.498 122.921C362.928 125.186 365.328 127.47 367.697 129.775L365.956 131.567C368.316 133.863 370.645 136.179 372.945 138.514L374.724 136.759C377.057 139.129 379.36 141.518 381.632 143.927L379.814 145.642C382.073 148.037 384.3 150.452 386.497 152.886L388.351 151.212C390.577 153.678 392.772 156.163 394.935 158.666L393.044 160.301C395.199 162.795 397.323 165.309 399.415 167.84L401.341 166.247C403.454 168.804 405.534 171.378 407.583 173.97L405.623 175.52C407.668 178.109 409.682 180.716 411.663 183.339L413.657 181.833C415.653 184.475 417.616 187.135 419.547 189.812L417.521 191.274C419.453 193.952 421.352 196.647 423.218 199.358L425.276 197.941C427.152 200.667 428.996 203.41 430.807 206.168L428.719 207.541C430.531 210.3 432.31 213.076 434.056 215.867L436.173 214.542C437.93 217.35 439.653 220.174 441.343 223.013L439.195 224.291C440.882 227.125 442.535 229.973 444.155 232.836L446.329 231.605C447.961 234.489 449.56 237.388 451.124 240.3L451.125 240.301L448.923 241.484C450.482 244.386 452.006 247.303 453.497 250.233L455.725 249.099C457.229 252.053 458.699 255.02 460.135 258.001L457.883 259.086C459.312 262.053 460.706 265.032 462.067 268.024L464.341 266.989C465.714 270.007 467.053 273.038 468.357 276.08L466.059 277.065C467.356 280.09 468.618 283.128 469.846 286.176L472.165 285.241C473.404 288.316 474.606 291.403 475.775 294.501L473.44 295.384C474.603 298.464 475.731 301.556 476.825 304.657L479.183 303.826L479.183 303.825C480.286 306.95 481.351 310.085 482.383 313.229L480.009 314.009C481.037 317.138 482.03 320.277 482.987 323.424L485.378 322.696C486.342 325.865 487.272 329.042 488.166 332.227L485.759 332.903C486.649 336.075 487.504 339.255 488.324 342.442L490.742 341.819C491.567 345.026 492.359 348.24 493.113 351.461L490.679 352.031C491.43 355.239 492.146 358.454 492.826 361.674L495.271 361.157C495.955 364.396 496.603 367.641 497.216 370.891L494.761 371.356C495.372 374.592 495.947 377.835 496.486 381.083L498.953 380.673C499.495 383.938 500.001 387.209 500.473 390.484L498 390.841C498.469 394.101 498.903 397.365 499.302 400.633L501.782 400.331C502.182 403.617 502.548 406.907 502.877 410.2L500.39 410.449C500.717 413.726 501.009 417.005 501.265 420.287L503.755 420.092C504.013 423.393 504.235 426.696 504.421 430.001L501.926 430.142C502.111 433.429 502.261 436.717 502.374 440.008L504.872 439.921C504.986 443.229 505.063 446.539 505.106 449.849L502.608 449.882C502.65 453.174 502.656 456.466 502.627 459.759L505.127 459.78C505.097 463.09 505.031 466.399 504.93 469.708L502.433 469.633C502.333 472.923 502.196 476.214 502.024 479.503L504.519 479.633C504.346 482.937 504.139 486.24 503.894 489.542L503.895 489.542L501.402 489.358C501.158 492.641 500.879 495.923 500.565 499.202L503.052 499.439C502.736 502.732 502.384 506.023 501.996 509.311L499.515 509.019C499.13 512.288 498.708 515.554 498.251 518.817L500.727 519.163L500.727 519.162C500.268 522.439 499.771 525.711 499.241 528.98L496.775 528.58C496.247 531.828 495.684 535.073 495.086 538.312L497.543 538.765C496.942 542.019 496.306 545.267 495.633 548.511L493.186 548.003C492.518 551.225 491.814 554.441 491.075 557.651L493.509 558.21C492.766 561.435 491.991 564.654 491.177 567.866L491.177 567.867L488.754 567.253C487.946 570.44 487.102 573.621 486.223 576.795L488.631 577.461C487.747 580.651 486.83 583.835 485.876 587.01L483.483 586.292C482.537 589.439 481.556 592.579 480.54 595.709L482.916 596.481C481.894 599.629 480.836 602.768 479.744 605.899L477.385 605.076C476.303 608.179 475.185 611.273 474.032 614.357L476.373 615.232Z" stroke="#A7182D" stroke-width="5" stroke-dasharray="10 10"/>
</svg>
