<svg width="67" height="66" viewBox="0 0 67 66" fill="none" xmlns="http://www.w3.org/2000/svg">
<path d="M48.0364 10.901H43.3661C42.6481 10.8979 41.9516 11.1458 41.3969 11.6018C40.8423 12.0578 40.4644 12.6932 40.3286 13.3982C40.1928 14.1033 40.3075 14.8336 40.6531 15.463C40.9986 16.0924 41.5532 16.5813 42.2209 16.8452L46.9612 18.7408C47.6267 19.0057 48.179 19.4943 48.5232 20.1224C48.8673 20.7506 48.9818 21.479 48.8469 22.1825C48.712 22.8859 48.3361 23.5203 47.7839 23.9766C47.2318 24.4328 46.5379 24.6823 45.8216 24.6822H41.1457M44.5925 10.901V7.56348M44.5925 27.6613V24.6822" stroke="#A7182D" stroke-width="3" stroke-linecap="round" stroke-linejoin="round"/>
<path d="M42.4617 48.042L59.8689 42.4813L59.9893 42.4477C60.9684 42.2331 61.9922 42.3822 62.8695 42.8671C63.7467 43.352 64.4175 44.1396 64.7566 45.0829C65.0958 46.0262 65.08 47.0606 64.7123 47.9931C64.3446 48.9256 63.6501 49.6924 62.7584 50.1503C28.7757 67.7451 37.4443 66.9499 2 55.1426M28.8009 17.7916C28.8009 21.9798 30.4646 25.9964 33.4261 28.9579C36.3876 31.9194 40.4043 33.5832 44.5925 33.5832C48.7807 33.5832 52.7973 31.9194 55.7588 28.9579C58.7203 25.9964 60.3841 21.9798 60.3841 17.7916C60.3841 13.6034 58.7203 9.58674 55.7588 6.62525C52.7973 3.66375 48.7807 2 44.5925 2C40.4043 2 36.3876 3.66375 33.4261 6.62525C30.4646 9.58674 28.8009 13.6034 28.8009 17.7916Z" stroke="#A7182D" stroke-width="3" stroke-linecap="round" stroke-linejoin="round"/>
<path d="M2.00281 33.5831H8.16265C15.3223 33.5105 22.2677 36.0239 27.7229 40.6613L27.8377 40.7621H39.3174C40.4629 40.7591 41.5626 41.2113 42.3746 42.0191C43.1867 42.827 43.6445 43.9243 43.6475 45.0698C43.6505 46.2152 43.1983 47.3149 42.3905 48.127C41.5826 48.939 40.4853 49.3969 39.3398 49.3999L21.8851 49.4867" stroke="#A7182D" stroke-width="3" stroke-linecap="round" stroke-linejoin="round"/>
</svg>
