<svg width="68" height="68" viewBox="0 0 68 68" fill="none" xmlns="http://www.w3.org/2000/svg">
<path d="M30.7846 17.9713C30.4508 17.023 29.8309 16.2016 29.0106 15.6204C28.1902 15.0393 27.2097 14.7271 26.2043 14.7268H22.44C21.3721 14.7298 20.3429 15.1266 19.5494 15.8413C18.7559 16.5559 18.254 17.5382 18.1397 18.5999C18.0254 19.6617 18.3068 20.7283 18.93 21.5955C19.5532 22.4626 20.4744 23.0694 21.5171 23.2996L27.2388 24.5528C28.4096 24.8083 29.4446 25.4876 30.1448 26.4601C30.845 27.4325 31.161 28.6295 31.0321 29.8209C30.9031 31.0123 30.3383 32.1139 29.4462 32.914C28.5541 33.7142 27.3978 34.1563 26.1994 34.1553H22.9597C21.9555 34.1558 20.9759 33.8449 20.1556 33.2656C19.3354 32.6863 18.7148 31.867 18.3794 30.9205M24.5868 14.7268V9.86963M24.5868 39.0125V34.1553M33.8494 65.5665V40.0665C33.8494 38.4562 34.4891 36.912 35.6277 35.7733C36.7663 34.6347 38.3106 33.9951 39.9208 33.9951C41.5311 33.9951 43.0754 34.6347 44.214 35.7733C45.3526 36.912 45.9923 38.4562 45.9923 40.0665V53.4236H55.7066C58.283 53.4236 60.7538 54.4471 62.5756 56.2689C64.3974 58.0907 65.4208 60.5615 65.4208 63.1379V65.5665" stroke="#A7182D" stroke-width="3" stroke-linecap="round" stroke-linejoin="round"/>
<path d="M24.5917 46.4537C20.1104 46.4531 15.7361 45.0844 12.0536 42.5307C8.37107 39.9771 5.55591 36.36 3.98447 32.1633C2.41304 27.9665 2.16023 23.3901 3.25984 19.0458C4.35946 14.7015 6.75909 10.7964 10.1379 7.8526C13.5167 4.90883 17.7137 3.0667 22.1677 2.57249C26.6216 2.07828 31.1203 2.95555 35.0623 5.08701C39.0043 7.21846 42.2016 10.5025 44.2268 14.5001C46.252 18.4977 47.0086 23.0182 46.3954 27.4574" stroke="#A7182D" stroke-width="3" stroke-linecap="round"/>
</svg>
