<svg width="88" height="88" viewBox="0 0 88 88" fill="none" xmlns="http://www.w3.org/2000/svg">
<path d="M56.8334 40.3333C56.8334 38.648 56.5014 36.9792 55.8565 35.4222C55.2115 33.8652 54.2662 32.4505 53.0746 31.2588C51.8829 30.0671 50.4681 29.1218 48.9111 28.4769C47.3541 27.8319 45.6853 27.5 44 27.5C42.3147 27.5 40.6459 27.8319 39.0889 28.4769C37.5319 29.1218 36.1172 30.0671 34.9255 31.2588C33.7338 32.4505 32.7885 33.8652 32.1436 35.4222C31.4986 36.9792 31.1667 38.648 31.1667 40.3333C31.1667 43.7369 32.5188 47.0012 34.9255 49.4079C37.3322 51.8146 40.5964 53.1667 44 53.1667C47.4036 53.1667 50.6678 51.8146 53.0746 49.4079C55.4813 47.0012 56.8334 43.7369 56.8334 40.3333Z" stroke="#A7182D" stroke-width="3" stroke-linecap="round" stroke-linejoin="round"/>
<path d="M56.771 41.6167C57.9541 41.9809 59.1971 42.1642 60.5 42.1667M60.5 42.1667C62.9834 42.1663 65.4133 41.4454 67.4951 40.0913C69.5769 38.7373 71.2211 36.8084 72.2284 34.5384C73.2356 32.2684 73.5626 29.755 73.1697 27.3029C72.7768 24.8508 71.6809 22.5653 70.0148 20.7237C68.3487 18.8821 66.1841 17.5635 63.7835 16.9277C61.3829 16.2919 58.8494 16.3663 56.4902 17.1419C54.131 17.9174 52.0475 19.3608 50.4924 21.297C48.9373 23.2332 47.9774 25.5791 47.729 28.05M60.5 42.1667C71.6393 42.1667 80.6667 50.3763 80.6667 60.5M40.271 28.05C40.0059 25.4189 38.9345 22.9339 37.2033 20.9349C35.4721 18.9359 33.1657 17.5205 30.5994 16.8823C28.0331 16.2441 25.3323 16.4143 22.8665 17.3696C20.4006 18.3248 18.29 20.0185 16.8234 22.219C15.3569 24.4195 14.6058 27.0193 14.6731 29.6629C14.7404 32.3065 15.6227 34.8648 17.1994 36.9878C18.776 39.1108 20.97 40.6949 23.4813 41.5235C25.9926 42.352 28.6985 42.3846 31.229 41.6167M64.1667 71.5C64.1667 61.3763 55.1393 53.1667 44 53.1667C32.8607 53.1667 23.8333 61.3763 23.8333 71.5" stroke="#A7182D" stroke-width="3" stroke-linecap="round" stroke-linejoin="round"/>
<path d="M27.5 42.1666C16.3607 42.1666 7.33334 50.3763 7.33334 60.5" stroke="#A7182D" stroke-width="3" stroke-linecap="round" stroke-linejoin="round"/>
<path d="M51.7315 76.7315L53.8593 78.8593M54.4735 82.441C54.2685 82.2485 54.1042 82.0168 53.9905 81.7595C53.8767 81.5023 53.8158 81.2248 53.8114 80.9436C53.807 80.6624 53.8591 80.3831 53.9647 80.1224C54.0703 79.8618 54.2272 79.6249 54.4261 79.4261C54.6249 79.2272 54.8618 79.0703 55.1224 78.9647C55.3831 78.8591 55.6624 78.807 55.9436 78.8114C56.2248 78.8158 56.5023 78.8767 56.7595 78.9905C57.0168 79.1042 57.2485 79.2685 57.441 79.4735L60.3377 82.3701C60.5427 82.5626 60.707 82.7944 60.8207 83.0516C60.9344 83.3089 60.9953 83.5863 60.9997 83.8676C61.0042 84.1488 60.952 84.428 60.8464 84.6887C60.7409 84.9494 60.584 85.1862 60.3851 85.3851C60.1862 85.584 59.9494 85.7409 59.6887 85.8464C59.428 85.952 59.1488 86.0042 58.8676 85.9997C58.5863 85.9953 58.3089 85.9344 58.0516 85.8207C57.7944 85.707 57.5626 85.5427 57.3701 85.3377L54.4735 82.441ZM53.8593 68.9296C53.8593 66.2961 52.8131 63.7705 50.951 61.9083C49.0888 60.0462 46.5631 59 43.9296 59C41.2961 59 38.7705 60.0462 36.9083 61.9083C35.0462 63.7705 34 66.2961 34 68.9296C34 71.5631 35.0462 74.0888 36.9083 75.951C38.7705 77.8131 41.2961 78.8593 43.9296 78.8593C46.5631 78.8593 49.0888 77.8131 50.951 75.951C52.8131 74.0888 53.8593 71.5631 53.8593 68.9296Z" stroke="#A7182D" stroke-width="3" stroke-linecap="round" stroke-linejoin="round"/>
</svg>
