<svg width="37" height="37" viewBox="0 0 37 37" fill="none" xmlns="http://www.w3.org/2000/svg">
<path d="M21.5835 33.9166H15.4168C9.6032 33.9166 6.69562 33.9166 4.89033 32.1098C3.08504 30.303 3.0835 27.3969 3.0835 21.5833V18.5C3.0835 12.6863 3.0835 9.77875 4.89033 7.97346C6.69716 6.16817 9.6032 6.16663 15.4168 6.16663H21.5835C27.3971 6.16663 30.3047 6.16663 32.11 7.97346C33.9153 9.78029 33.9168 12.6863 33.9168 18.5V21.5833C33.9168 27.3969 33.9168 30.3045 32.11 32.1098C31.1033 33.118 29.7543 33.5636 27.7502 33.7594M10.7918 6.16663V3.85413M26.2085 6.16663V3.85413M33.146 13.875H16.5731M3.0835 13.875H9.05745" stroke="black" stroke-width="1.5" stroke-linecap="round"/>
</svg>
