<svg width="123" height="123" viewBox="0 0 123 123" fill="none" xmlns="http://www.w3.org/2000/svg">
<path d="M82 79.6425C93.4075 82.8036 103.931 88.5564 112.75 96.4525L99.9375 112.75L76.875 99.9375L82 79.6425ZM82 79.6425C75.3226 77.8006 68.4268 76.8697 61.5 76.875C54.4019 76.875 47.5241 77.8385 41 79.6425M41 79.6425C29.5925 82.8036 19.0691 88.5564 10.25 96.4525L23.0625 112.75L46.125 99.9375L41 79.6425ZM10.25 74.3125V53.8125H21.7915C22.7601 50.0507 24.2515 46.4991 26.1785 43.2345L18.0144 35.0704L32.5079 20.5769L40.672 28.741C43.9754 26.791 47.5361 25.3143 51.25 24.354V12.8125H71.75V24.354C75.5118 25.3226 79.0634 26.814 82.328 28.741L90.4921 20.5769L104.986 35.0704L96.8215 43.2345C98.7536 46.4991 100.24 50.0507 101.208 53.8125H112.75V74.3125" stroke="white" stroke-width="2.5"/>
<path d="M76.875 64.0625C76.875 59.9848 75.2551 56.0741 72.3718 53.1907C69.4884 50.3074 65.5777 48.6875 61.5 48.6875C57.4223 48.6875 53.5116 50.3074 50.6282 53.1907C47.7449 56.0741 46.125 59.9848 46.125 64.0625" stroke="white" stroke-width="2.5"/>
</svg>
