<svg width="70" height="71" viewBox="0 0 70 71" fill="none" xmlns="http://www.w3.org/2000/svg">
<path d="M60.3354 39.3063C60.625 37.8584 60.625 36.7 60.625 35.5417C60.625 34.3834 60.625 33.225 60.3354 31.7771L67.575 26.5646C68.4437 25.9854 68.4437 25.1167 68.1541 24.2479L60.9145 11.7959C60.3354 10.9271 59.4666 10.6375 58.5979 11.2167L50.2 14.9813C48.1729 13.5334 46.1458 12.375 43.8291 11.2167L42.9604 2.2396C43.25 1.37085 42.6708 0.791687 41.802 0.791687H27.6125C26.7437 0.791687 25.875 1.37085 25.875 2.2396L25.0062 11.2167C22.6895 12.0854 20.6625 13.2438 18.6354 14.9813L10.2375 11.2167C9.3687 10.9271 8.49995 11.2167 7.92078 11.7959L0.681199 24.2479C0.102032 25.1167 0.391618 25.9854 1.26037 26.5646L8.49995 31.7771V35.5417C8.49995 36.7 8.49995 37.8584 8.78954 39.3063L1.54995 44.5188C0.681202 45.0979 0.6812 45.9667 0.970783 46.8354L8.21037 59.2875C8.78953 60.1563 9.65829 60.4459 10.527 59.8667L18.925 56.1021C20.952 57.55 22.9791 58.7084 25.2958 59.8667L26.1645 68.8438C26.1645 69.7125 27.0333 70.2917 27.902 70.2917H42.0916C42.9604 70.2917 43.8291 69.7125 43.8291 68.8438L44.6979 59.8667C47.0145 58.9979 49.0416 57.8396 51.0687 56.1021L59.4666 59.8667C60.3354 60.1563 61.2041 59.8667 61.7833 59.2875L69.0229 46.8354C69.602 45.9667 69.3125 45.0979 68.4437 44.5188L60.3354 39.3063ZM34.5625 50.0209C26.4541 50.0209 20.0833 43.65 20.0833 35.5417C20.0833 27.4334 26.4541 21.0625 34.5625 21.0625C42.6708 21.0625 49.0416 27.4334 49.0416 35.5417C49.0416 43.65 42.6708 50.0209 34.5625 50.0209Z" fill="white"/>
</svg>
