<svg width="37" height="37" viewBox="0 0 37 37" fill="none" xmlns="http://www.w3.org/2000/svg">
<path d="M15.0823 5.39588C16.1504 4.88888 17.3179 4.62585 18.5002 4.62585C19.6825 4.62585 20.85 4.88888 21.918 5.39588L32.2333 10.2321C34.478 11.2835 34.478 14.9249 32.2333 15.9763L21.9196 20.8125C20.8513 21.3198 19.6835 21.5829 18.5009 21.5829C17.3183 21.5829 16.1506 21.3198 15.0823 20.8125L4.767 15.9763C2.52233 14.9249 2.52233 11.2835 4.767 10.2321L9.25016 8.12925M3.0835 13.1042V21.5834M18.5002 32.375C15.7313 32.375 12.1084 30.6468 9.84371 29.3935C8.4855 28.6396 7.7085 27.1843 7.7085 25.6318V17.7292M29.2918 17.7292V25.6303C29.2918 27.1843 28.5164 28.6396 27.1566 29.3919C26.217 29.9141 25.2552 30.395 24.2737 30.8334" stroke="black" stroke-width="1.5" stroke-linecap="round"/>
</svg>
