<svg width="37" height="37" viewBox="0 0 37 37" fill="none" xmlns="http://www.w3.org/2000/svg">
<path d="M21.5835 21.5834H15.4168M33.9168 18.1886C33.9168 14.131 33.9168 12.1006 32.7297 10.7825C32.6208 10.6608 32.5056 10.545 32.3844 10.4356C31.0663 9.25004 29.0359 9.25004 24.9782 9.25004H24.4017C22.6241 9.25004 21.7346 9.25004 20.9052 9.01417C20.45 8.88406 20.0113 8.70197 19.5978 8.4715C18.8455 8.05371 18.2165 7.42317 16.9585 6.16671L16.1106 5.31879C15.6882 4.89637 15.4785 4.68671 15.2565 4.50171C14.3017 3.71028 13.1304 3.22512 11.8957 3.10958C11.6089 3.08337 11.3098 3.08337 10.7147 3.08337C9.35345 3.08337 8.67358 3.08337 8.10625 3.19129C6.88808 3.42134 5.76754 4.01321 4.8908 4.88967C4.01407 5.76613 3.42185 6.88649 3.19141 8.10458C3.0835 8.67346 3.0835 9.35487 3.0835 10.7146M33.903 24.6667C33.8475 28.49 33.5638 30.6561 32.11 32.1099C30.3047 33.9167 27.3971 33.9167 21.5835 33.9167H15.4168C9.6032 33.9167 6.69562 33.9167 4.89033 32.1099C3.08504 30.303 3.0835 27.397 3.0835 21.5834V16.9584" stroke="black" stroke-width="1.5" stroke-linecap="round"/>
</svg>
