<svg width="79" height="79" viewBox="0 0 79 79" fill="none" xmlns="http://www.w3.org/2000/svg">
<path d="M63.2188 0.9375C62.0377 0.9375 60.905 1.40667 60.0699 2.24179C59.2348 3.07691 58.7656 4.20958 58.7656 5.39062V11.3281H52.8281C51.6471 11.3281 50.5144 11.7973 49.6793 12.6324C48.8442 13.4675 48.375 14.6002 48.375 15.7812C48.375 16.9623 48.8442 18.095 49.6793 18.9301C50.5144 19.7652 51.6471 20.2344 52.8281 20.2344H58.7656V26.1719C58.7656 27.3529 59.2348 28.4856 60.0699 29.3207C60.905 30.1558 62.0377 30.625 63.2188 30.625C64.3998 30.625 65.5325 30.1558 66.3676 29.3207C67.2027 28.4856 67.6719 27.3529 67.6719 26.1719V20.2344H73.6094C74.7904 20.2344 75.9231 19.7652 76.7582 18.9301C77.5933 18.095 78.0625 16.9623 78.0625 15.7812C78.0625 14.6002 77.5933 13.4675 76.7582 12.6324C75.9231 11.7973 74.7904 11.3281 73.6094 11.3281H67.6719V5.39062C67.6719 4.20958 67.2027 3.07691 66.3676 2.24179C65.5325 1.40667 64.3998 0.9375 63.2188 0.9375ZM12.75 6.875C9.60055 6.875 6.5801 8.12611 4.35311 10.3531C2.12611 12.5801 0.875 15.6006 0.875 18.75V66.25C0.875 69.3994 2.12611 72.4199 4.35311 74.6469C6.5801 76.8739 9.60055 78.125 12.75 78.125H60.25C63.3994 78.125 66.4199 76.8739 68.6469 74.6469C70.8739 72.4199 72.125 69.3994 72.125 66.25V35.4284C69.7836 37.8755 66.6002 39.342 63.2188 39.5312C60.1618 39.3701 57.253 38.164 54.979 36.1147C52.7049 34.0655 51.2036 31.2974 50.7262 28.2738C47.7026 27.7964 44.9345 26.2951 42.8853 24.021C40.836 21.747 39.6299 18.8382 39.4688 15.7812C39.658 12.3998 41.1245 9.21637 43.5716 6.875H19.1981H12.75ZM18.6875 18.75C20.2622 18.75 21.7724 19.3756 22.8859 20.4891C23.9994 21.6026 24.625 23.1128 24.625 24.6875C24.625 26.2622 23.9994 27.7724 22.8859 28.8859C21.7724 29.9994 20.2622 30.625 18.6875 30.625C17.1128 30.625 15.6026 29.9994 14.4891 28.8859C13.3756 27.7724 12.75 26.2622 12.75 24.6875C12.75 23.1128 13.3756 21.6026 14.4891 20.4891C15.6026 19.3756 17.1128 18.75 18.6875 18.75ZM48.375 37.7916C48.7655 37.7916 49.1522 37.8688 49.5129 38.0186C49.8736 38.1683 50.2012 38.3878 50.4769 38.6644L62.3519 50.5394C62.9068 51.0958 63.2186 51.8495 63.2188 52.6353V66.25C63.2188 67.0374 62.906 67.7925 62.3492 68.3492C61.7925 68.906 61.0374 69.2188 60.25 69.2188H12.75C11.9626 69.2188 11.2075 68.906 10.6508 68.3492C10.094 67.7925 9.78125 67.0374 9.78125 66.25V52.6353C9.78142 51.8495 10.0932 51.0958 10.6481 50.5394L16.5856 44.6019C16.8614 44.3254 17.189 44.1061 17.5497 43.9564C17.9103 43.8067 18.297 43.7297 18.6875 43.7297C19.078 43.7297 19.4647 43.8067 19.8253 43.9564C20.186 44.1061 20.5136 44.3254 20.7894 44.6019L28.4606 52.2731C28.7364 52.5496 29.064 52.7689 29.4247 52.9186C29.7853 53.0683 30.172 53.1453 30.5625 53.1453C30.953 53.1453 31.3397 53.0683 31.7003 52.9186C32.061 52.7689 32.3886 52.5496 32.6644 52.2731L46.2731 38.6644C46.5488 38.3878 46.8764 38.1683 47.2371 38.0186C47.5978 37.8688 47.9845 37.7916 48.375 37.7916Z" fill="black" fill-opacity="0.5"/>
</svg>
