<svg width="29" height="29" viewBox="0 0 29 29" fill="none" xmlns="http://www.w3.org/2000/svg">
<path d="M19.2639 1.33674C20.0828 0.517603 21.1826 0.0406022 22.3403 0.00247482C23.4979 -0.0356525 24.6268 0.367948 25.4978 1.13142L25.7168 1.33674L26.7921 2.41198C27.6108 3.23083 28.0875 4.33035 28.1256 5.48765C28.1637 6.64495 27.7604 7.77345 26.9974 8.64441L26.7921 8.86342L9.7403 25.9167C9.49921 26.1578 9.20715 26.3417 8.88559 26.4551L8.63921 26.5266L1.86535 28.09C1.628 28.1452 1.38087 28.1425 1.14476 28.0823C0.908646 28.022 0.690471 27.9059 0.508606 27.7437C0.32674 27.5815 0.18651 27.378 0.0997238 27.1503C0.0129374 26.9226 -0.0178639 26.6774 0.00991389 26.4353L0.0403308 26.2635L1.60224 19.4881C1.6794 19.1557 1.83012 18.845 2.04329 18.5786L2.2121 18.3885L19.2639 1.33674ZM18.1886 6.71294L4.51619 20.3854L3.54893 24.5799L7.74343 23.6111L21.4159 9.93866L18.1886 6.71294ZM23.5663 3.48722C23.3045 3.22536 22.956 3.06806 22.5864 3.04482C22.2168 3.02158 21.8514 3.134 21.5588 3.36099L21.4159 3.48722L20.3391 4.56246L23.5663 7.78818L24.6416 6.71294C24.9034 6.45106 25.0607 6.10263 25.084 5.73303C25.1072 5.36342 24.9948 4.99803 24.7678 4.70542L24.6416 4.56246L23.5663 3.48722Z" fill="#A7182D"/>
</svg>
