<svg width="37" height="37" viewBox="0 0 37 37" fill="none" xmlns="http://www.w3.org/2000/svg">
<path d="M21.5835 32.375H7.7085C6.27166 32.375 5.55325 32.375 4.98745 32.1407C4.61311 31.9857 4.27297 31.7585 3.98649 31.472C3.7 31.1855 3.47279 30.8454 3.31783 30.471C3.0835 29.9052 3.0835 29.1868 3.0835 27.75C3.0835 26.3132 3.0835 25.5948 3.31783 25.029C3.47279 24.6546 3.7 24.3145 3.98649 24.028C4.27297 23.7415 4.61311 23.5143 4.98745 23.3593C5.55325 23.125 6.27166 23.125 7.7085 23.125H29.2918C30.7287 23.125 31.4471 23.125 32.0129 23.3593C32.3872 23.5143 32.7274 23.7415 33.0138 24.028C33.3003 24.3145 33.5275 24.6546 33.6825 25.029C33.9168 25.5948 33.9168 26.3132 33.9168 27.75C33.9168 29.1868 33.9168 29.9052 33.6825 30.471C33.5275 30.8454 33.3003 31.1855 33.0138 31.472C32.7274 31.7585 32.3872 31.9857 32.0129 32.1407C31.4471 32.375 30.7287 32.375 29.2918 32.375H27.7502" stroke="black" stroke-width="1.5" stroke-linecap="round"/>
<path d="M3.0835 18.5C3.0835 17.0632 3.0835 16.3447 3.31783 15.779C3.47279 15.4046 3.7 15.0645 3.98649 14.778C4.27297 14.4915 4.61311 14.2643 4.98745 14.1093C5.55325 13.875 6.27166 13.875 7.7085 13.875H29.2918C30.7287 13.875 31.4471 13.875 32.0129 14.1093C32.3872 14.2643 32.7274 14.4915 33.0138 14.778C33.3003 15.0645 33.5275 15.4046 33.6825 15.779C33.9168 16.3447 33.9168 17.0632 33.9168 18.5C33.9168 19.9368 33.9168 20.6553 33.6825 21.221C33.5275 21.5954 33.3003 21.9355 33.0138 22.222C32.7274 22.5085 32.3872 22.7357 32.0129 22.8907C31.4471 23.125 30.7287 23.125 29.2918 23.125H7.7085C6.27166 23.125 5.55325 23.125 4.98745 22.8907C4.61311 22.7357 4.27297 22.5085 3.98649 22.222C3.7 21.9355 3.47279 21.5954 3.31783 21.221C3.0835 20.6553 3.0835 19.9368 3.0835 18.5Z" stroke="black" stroke-width="1.5"/>
<path d="M15.4168 4.625H29.2918C30.7287 4.625 31.4471 4.625 32.0129 4.85933C32.3872 5.01429 32.7274 5.24151 33.0138 5.52799C33.3003 5.81447 33.5275 6.15461 33.6825 6.52896C33.9168 7.09475 33.9168 7.81317 33.9168 9.25C33.9168 10.6868 33.9168 11.4052 33.6825 11.971C33.5275 12.3454 33.3003 12.6855 33.0138 12.972C32.7274 13.2585 32.3872 13.4857 32.0129 13.6407C31.4471 13.875 30.7287 13.875 29.2918 13.875H7.7085C6.27166 13.875 5.55325 13.875 4.98745 13.6407C4.61311 13.4857 4.27297 13.2585 3.98649 12.972C3.7 12.6855 3.47279 12.3454 3.31783 11.971C3.0835 11.4052 3.0835 10.6868 3.0835 9.25C3.0835 7.81317 3.0835 7.09475 3.31783 6.52896C3.47279 6.15461 3.7 5.81447 3.98649 5.52799C4.27297 5.24151 4.61311 5.01429 4.98745 4.85933C5.55325 4.625 6.27166 4.625 7.7085 4.625H9.25016" stroke="black" stroke-width="1.5" stroke-linecap="round"/>
<path d="M7.70866 20.0417C8.5601 20.0417 9.25033 19.3515 9.25033 18.5C9.25033 17.6486 8.5601 16.9584 7.70866 16.9584C6.85722 16.9584 6.16699 17.6486 6.16699 18.5C6.16699 19.3515 6.85722 20.0417 7.70866 20.0417Z" fill="black"/>
<path d="M7.70866 10.7917C8.5601 10.7917 9.25033 10.1015 9.25033 9.25004C9.25033 8.3986 8.5601 7.70837 7.70866 7.70837C6.85722 7.70837 6.16699 8.3986 6.16699 9.25004C6.16699 10.1015 6.85722 10.7917 7.70866 10.7917Z" fill="black"/>
<path d="M7.70866 29.2917C8.5601 29.2917 9.25033 28.6015 9.25033 27.75C9.25033 26.8986 8.5601 26.2084 7.70866 26.2084C6.85722 26.2084 6.16699 26.8986 6.16699 27.75C6.16699 28.6015 6.85722 29.2917 7.70866 29.2917Z" fill="black"/>
</svg>
