<svg width="37" height="37" viewBox="0 0 37 37" fill="none" xmlns="http://www.w3.org/2000/svg">
<path d="M17.7525 33.7502L18.1533 33.0749L16.1615 31.8971L15.7606 32.5723L17.7525 33.7502ZM12.6804 33.0749L13.0812 33.7502L15.0715 32.5723L14.6707 31.8971L12.6804 33.0749ZM15.7622 32.5723C15.7268 32.6318 15.6761 32.6806 15.6153 32.7137C15.5545 32.7468 15.486 32.7629 15.4168 32.7604C15.3477 32.7629 15.2791 32.7468 15.2184 32.7137C15.1576 32.6806 15.1069 32.6318 15.0715 32.5723L13.0827 33.7502C14.1249 35.5138 16.7087 35.5138 17.7525 33.7502L15.7622 32.5723ZM13.5668 10.4063H17.2668V8.09375H13.5668V10.4063ZM26.5939 19.7333V20.9667H28.9064V19.7333H26.5939ZM4.23975 20.9667V19.7333H1.92725V20.9667H4.23975ZM1.92725 20.9667C1.92725 22.3881 1.92725 23.5104 1.98891 24.42C2.05058 25.3388 2.18162 26.122 2.48533 26.8528L4.62054 25.9678C4.45404 25.5655 4.35075 25.0629 4.29679 24.2628C4.23975 23.4503 4.23975 22.4189 4.23975 20.9667H1.92725ZM9.73271 29.0373C8.51171 28.9987 7.84725 28.8924 7.33233 28.6796L6.44741 30.8148C7.36779 31.1972 8.38221 31.3082 9.6587 31.3498L9.73271 29.0373ZM2.48533 26.8528C3.22855 28.6465 4.65369 30.0716 6.44741 30.8148L7.33233 28.6796C6.72425 28.4277 6.17178 28.0583 5.70648 27.5928C5.24118 27.1272 4.87217 26.5761 4.62054 25.9678L2.48533 26.8528ZM26.5939 20.9667C26.5939 22.4189 26.5939 23.4503 26.5384 24.2628C26.4829 25.0644 26.3796 25.5655 26.2131 25.9678L28.3483 26.8528C28.652 26.122 28.7815 25.3388 28.8447 24.42C28.9064 23.5104 28.9064 22.3881 28.9064 20.9667H26.5939ZM21.175 31.3498C22.4515 31.3082 23.4659 31.1956 24.3862 30.8148L23.5013 28.6796C22.9849 28.8924 22.322 28.9987 21.101 29.0373L21.175 31.3498ZM26.2131 25.9678C25.9611 26.5759 25.5918 27.1284 25.1263 27.5937C24.6607 28.059 24.108 28.428 23.4998 28.6796L24.3862 30.8148C26.18 30.0716 27.6051 28.6465 28.3483 26.8528L26.2131 25.9678ZM17.2668 10.4063C19.308 10.4063 20.7572 10.4063 21.8841 10.5142C22.9941 10.6205 23.6725 10.821 24.2012 11.1447L25.4099 9.17292C24.4556 8.58708 23.3826 8.33425 22.103 8.21246C20.842 8.09221 19.2633 8.09375 17.2668 8.09375V10.4063ZM28.9064 19.7333C28.9064 17.7369 28.9064 16.1582 28.7877 14.8971C28.6659 13.6175 28.4115 12.5461 27.8272 11.5918L25.8555 12.7989C26.1792 13.3277 26.3796 14.006 26.486 15.116C26.5939 16.2415 26.5939 17.6922 26.5939 19.7333H28.9064ZM24.2012 11.1447C24.8755 11.5579 25.4423 12.1247 25.8555 12.7989L27.8272 11.5918C27.2235 10.6066 26.3951 9.77669 25.4099 9.17292L24.2012 11.1447ZM13.5668 8.09375C11.5704 8.09375 9.9917 8.09375 8.73062 8.21246C7.45104 8.33425 6.37804 8.58863 5.42375 9.17292L6.63241 11.1447C7.16121 10.821 7.83954 10.6205 8.94954 10.5142C10.075 10.4063 11.5257 10.4063 13.5668 10.4063V8.09375ZM4.23975 19.7333C4.23975 17.6922 4.23975 16.243 4.34766 15.116C4.45404 14.006 4.65446 13.3277 4.97821 12.7989L3.00641 11.5903C2.42058 12.5445 2.16775 13.6175 2.04596 14.8971C1.92571 16.1582 1.92725 17.7369 1.92725 19.7333H4.23975ZM5.42375 9.17292C4.43854 9.77669 3.61019 10.605 3.00641 11.5903L4.97821 12.7989C5.39135 12.1247 5.95821 11.5579 6.63241 11.1447L5.42375 9.17292ZM14.6722 31.8971C14.3623 31.3729 14.091 30.9135 13.8274 30.5497C13.557 30.1512 13.2049 29.8148 12.7945 29.563L11.6166 31.5548C11.6875 31.5965 11.7862 31.6735 11.9558 31.9094C12.1408 32.1638 12.3505 32.5153 12.6804 33.0749L14.6722 31.8971ZM9.6587 31.3498C10.3463 31.3714 10.7841 31.3868 11.1187 31.4269C11.4332 31.4654 11.5519 31.5163 11.6166 31.5548L12.7929 29.5645C12.3458 29.3009 11.8772 29.1899 11.3977 29.1329C10.9383 29.0758 10.3787 29.0589 9.73271 29.0373L9.6587 31.3498ZM18.1533 33.0749C18.4832 32.5153 18.6929 32.1638 18.8779 31.9094C19.0475 31.6735 19.1461 31.5965 19.217 31.5548L18.0407 29.5645C17.6303 29.8164 17.2782 30.1527 17.0078 30.5512C16.7427 30.9135 16.4713 31.3745 16.1615 31.8971L18.1533 33.0749ZM21.101 29.0373C20.455 29.0589 19.8954 29.0758 19.436 29.1313C18.958 29.1899 18.4863 29.3025 18.0407 29.5645L19.217 31.5548C19.2818 31.5163 19.4005 31.4654 19.715 31.4269C20.048 31.3868 20.4874 31.3714 21.175 31.3498L21.101 29.0373Z" fill="black"/>
<path d="M20.6199 4.23804H24.0887V1.92554H20.6199V4.23804ZM32.7606 12.9099V14.0662H35.0731V12.9099H32.7606ZM32.7606 14.0662C32.7606 15.429 32.7606 16.3941 32.7082 17.1495C32.6573 17.8987 32.5602 18.3597 32.4091 18.7266L34.5443 19.6115C34.8326 18.9162 34.9559 18.1732 35.0145 17.3083C35.0731 16.4542 35.0731 15.3966 35.0731 14.0662H32.7606ZM32.4091 18.7266C32.1766 19.2879 31.8359 19.7979 31.4063 20.2275C30.9767 20.6571 30.4667 20.9979 29.9054 21.2303L30.7903 23.367C31.632 23.0182 32.3967 22.507 33.0408 21.8627C33.6849 21.2183 34.1958 20.4534 34.5443 19.6115L32.4091 18.7266ZM24.0887 4.23804C26.0034 4.23804 27.357 4.23958 28.4115 4.34133C29.446 4.44 30.0688 4.625 30.5514 4.921L31.76 2.9492C30.8535 2.3942 29.8345 2.1537 28.6304 2.03962C27.4434 1.92554 25.9587 1.92708 24.0887 1.92708V4.23804ZM35.0731 12.9115C35.0731 11.0414 35.0731 9.55833 34.9605 8.3697C34.8464 7.16566 34.6059 6.14662 34.0509 5.24012L32.0776 6.44879C32.3752 6.93133 32.5602 7.55416 32.6588 8.58862C32.759 9.64158 32.7606 10.9967 32.7606 12.9115H35.0731ZM30.5514 4.921C31.1734 5.30225 31.6964 5.82678 32.0776 6.44879L34.0509 5.24012C33.4784 4.3062 32.6943 3.52114 31.76 2.9492L30.5514 4.921ZM20.6199 1.92708C18.7499 1.92708 17.2668 1.92708 16.0782 2.03808C14.8742 2.1537 13.8551 2.39266 12.9486 2.9492L14.1557 4.92254C14.6398 4.625 15.2627 4.44 16.2987 4.34133C17.3501 4.24112 18.7037 4.23804 20.6199 4.23804V1.92708ZM12.9486 2.9492C12.0147 3.52177 11.2296 4.30735 10.6577 5.24166L12.6295 6.45033C13.0107 5.82832 13.5337 5.30379 14.1557 4.92254L12.9486 2.9492ZM11.9974 9.31166C12.0745 7.83166 12.2672 7.04079 12.6295 6.45033L10.6577 5.24166C9.98399 6.34087 9.7697 7.61275 9.68799 9.19141L11.9974 9.31166ZM27.7887 23.8742C28.9712 23.8342 29.9224 23.7293 30.7903 23.3701L29.9054 21.2334C29.4398 21.4261 28.8355 21.5263 27.7116 21.5633L27.7887 23.8742Z" fill="black"/>
<path d="M10.0366 20.0417H10.049M15.417 20.0417H15.4309M20.799 20.0417H20.8129" stroke="black" stroke-width="2" stroke-linecap="round" stroke-linejoin="round"/>
</svg>
