<svg width="118" height="143" viewBox="0 0 118 143" fill="none" xmlns="http://www.w3.org/2000/svg">
<path d="M0.802734 18.492C0.802734 13.7955 2.66843 9.2913 5.98939 5.97034C9.31034 2.64939 13.8145 0.783691 18.5111 0.783691H99.9694C102.295 0.783691 104.598 1.24173 106.746 2.13166C108.895 3.02159 110.847 4.32597 112.491 5.97034C114.135 7.61471 115.44 9.56686 116.33 11.7153C117.22 13.8638 117.678 16.1665 117.678 18.492V119.43C117.678 120.838 117.118 122.19 116.122 123.186C115.125 124.182 113.774 124.742 112.365 124.742H11.4277C11.4277 126.621 12.174 128.422 13.5024 129.751C14.8308 131.079 16.6325 131.825 18.5111 131.825H112.365C113.774 131.825 115.125 132.385 116.122 133.381C117.118 134.378 117.678 135.729 117.678 137.138C117.678 138.547 117.118 139.898 116.122 140.894C115.125 141.891 113.774 142.45 112.365 142.45H18.5111C13.8145 142.45 9.31034 140.585 5.98939 137.264C2.66843 133.943 0.802734 129.439 0.802734 124.742V18.492Z" fill="url(#paint0_linear_182_115)"/>
<defs>
<linearGradient id="paint0_linear_182_115" x1="41.1282" y1="27.2895" x2="62.2932" y2="180.049" gradientUnits="userSpaceOnUse">
<stop stop-color="#A7182D"/>
<stop offset="1" stop-color="white"/>
</linearGradient>
</defs>
</svg>
